<svg width="23" height="25" viewBox="0 0 23 25" fill="none" xmlns="http://www.w3.org/2000/svg">
<path fill-rule="evenodd" clip-rule="evenodd" d="M8.47916 5H10.5209C11.8444 4.99998 12.9111 4.99996 13.7501 5.11337C14.6212 5.23112 15.3545 5.48301 15.9371 6.06866C16.5196 6.65431 16.7702 7.3917 16.8873 8.26748C17 9.11102 17 10.1835 17 11.5142V16.4858C17 17.8164 17 18.8889 16.8873 19.7325C16.7702 20.6082 16.5196 21.3457 15.9371 21.9313C15.3545 22.5169 14.6212 22.7688 13.7501 22.8866C12.9111 23 11.8444 23 10.5209 23H8.47916C7.15568 23 6.08892 23 5.24992 22.8866C4.37885 22.7688 3.64542 22.5169 3.06292 21.9313C2.48042 21.3457 2.22988 20.6082 2.11276 19.7325C1.99996 18.8889 1.99998 17.8164 2 16.4858V11.5142C1.99998 10.1835 1.99996 9.11102 2.11276 8.26748C2.22988 7.3917 2.48042 6.65431 3.06292 6.06866C3.64542 5.48301 4.37885 5.23112 5.24992 5.11337C6.08892 4.99996 7.15568 4.99998 8.47916 5ZM5.44334 6.55982C4.73324 6.6558 4.3572 6.83137 4.08936 7.10065C3.82153 7.36993 3.6469 7.74801 3.55144 8.46195C3.45315 9.19688 3.45161 10.1709 3.45161 11.5676V16.4324C3.45161 17.829 3.45315 18.8031 3.55144 19.538C3.6469 20.2519 3.82153 20.63 4.08936 20.8994C4.3572 21.1686 4.73324 21.3442 5.44334 21.4401C6.17433 21.539 7.14314 21.5405 8.53226 21.5405H10.4677C11.8568 21.5405 12.8256 21.539 13.5567 21.4401C14.2668 21.3442 14.6428 21.1686 14.9106 20.8994C15.1785 20.63 15.3531 20.2519 15.4486 19.538C15.5468 18.8031 15.5484 17.829 15.5484 16.4324V11.5676C15.5484 10.1709 15.5468 9.19688 15.4486 8.46195C15.3531 7.74801 15.1785 7.36993 14.9106 7.10065C14.6428 6.83137 14.2668 6.6558 13.5567 6.55982C12.8256 6.461 11.8568 6.45946 10.4677 6.45946H8.53226C7.14315 6.45946 6.17433 6.461 5.44334 6.55982Z" fill="url(#paint0_linear_142_518)"/>
<path d="M7.5 14L11.5 14" stroke="url(#paint1_linear_142_518)" stroke-width="1.5" stroke-linecap="round" stroke-linejoin="round"/>
<path d="M9.5 16V12" stroke="url(#paint2_linear_142_518)" stroke-width="1.5" stroke-linecap="round" stroke-linejoin="round"/>
<path fill-rule="evenodd" clip-rule="evenodd" d="M13.0418 2.31952L15.1128 2.85684C16.4595 3.2062 17.5419 3.48703 18.3621 3.81853C19.2106 4.16146 19.8872 4.59953 20.3221 5.32885C20.7591 6.06182 20.8142 6.8576 20.6954 7.75044C20.5813 8.60805 20.2903 9.65958 19.9303 10.9602L18.8462 14.8778C18.4862 16.1789 18.1952 17.2303 17.8514 18.0278C17.4931 18.8588 17.0373 19.5141 16.2902 19.9317L15.5583 18.6224C15.9071 18.4274 16.1855 18.103 16.4739 17.434C16.772 16.7425 17.0369 15.7916 17.4154 14.4239L18.4696 10.6145C18.8482 9.24653 19.1097 8.29513 19.2085 7.55256C19.3042 6.8333 19.2294 6.42514 19.0337 6.09706C18.8359 5.76535 18.5007 5.49245 17.8 5.20923C17.0816 4.91886 16.095 4.66132 14.6839 4.29523L12.7168 3.78486C11.3059 3.41882 10.3182 3.16411 9.54556 3.06771C8.79288 2.9738 8.35448 3.04658 8.00225 3.24349C7.50134 3.52351 7.15673 4.06201 6.71505 5.46076L5.28467 5.00909C5.72816 3.60463 6.21084 2.52646 7.27032 1.93418C8.01391 1.5185 8.81892 1.46542 9.73126 1.57925C10.6123 1.68918 11.6947 1.97001 13.0418 2.31952Z" fill="url(#paint3_linear_142_518)"/>
<defs>
<linearGradient id="paint0_linear_142_518" x1="2.12181" y1="6.08445" x2="16.695" y2="6.20379" gradientUnits="userSpaceOnUse">
<stop offset="0.03125" stop-color="#B8860B"/>
<stop offset="0.235169" stop-color="#FFD700"/>
<stop offset="0.505033" stop-color="#B8860B"/>
<stop offset="0.749821" stop-color="#DCB900"/>
<stop offset="1" stop-color="#B8860B"/>
</linearGradient>
<linearGradient id="paint1_linear_142_518" x1="7.53248" y1="14.0602" x2="11.4129" y2="14.2128" gradientUnits="userSpaceOnUse">
<stop offset="0.03125" stop-color="#B8860B"/>
<stop offset="0.235169" stop-color="#FFD700"/>
<stop offset="0.505033" stop-color="#B8860B"/>
<stop offset="0.749821" stop-color="#DCB900"/>
<stop offset="1" stop-color="#B8860B"/>
</linearGradient>
<linearGradient id="paint2_linear_142_518" x1="9.50812" y1="12.241" x2="10.4797" y2="12.2434" gradientUnits="userSpaceOnUse">
<stop offset="0.03125" stop-color="#B8860B"/>
<stop offset="0.235169" stop-color="#FFD700"/>
<stop offset="0.505033" stop-color="#B8860B"/>
<stop offset="0.749821" stop-color="#DCB900"/>
<stop offset="1" stop-color="#B8860B"/>
</linearGradient>
<linearGradient id="paint3_linear_142_518" x1="5.41026" y1="2.63593" x2="20.4353" y2="2.75999" gradientUnits="userSpaceOnUse">
<stop offset="0.03125" stop-color="#B8860B"/>
<stop offset="0.235169" stop-color="#FFD700"/>
<stop offset="0.505033" stop-color="#B8860B"/>
<stop offset="0.749821" stop-color="#DCB900"/>
<stop offset="1" stop-color="#B8860B"/>
</linearGradient>
</defs>
</svg>
