<svg width="31" height="19" viewBox="0 0 31 19" fill="none" xmlns="http://www.w3.org/2000/svg">
<path fill-rule="evenodd" clip-rule="evenodd" d="M16.6339 8.064L13.6141 4.17008C13.6141 4.17008 16.9835 4.99655 17.953 4.71046C18.9225 4.42438 17.8418 0.562256 17.8418 0.562256C17.8418 0.562256 20.9887 2.70788 21.7357 2.70788C22.4827 2.70788 23.1979 1.34104 23.1979 1.34104L28.6812 7.76202L26.1382 7.34879C26.1382 7.34879 24.6919 7.23753 23.8178 7.34879C22.9436 7.46004 21.4814 7.95274 21.4814 7.95274C21.4814 7.95274 19.2245 8.81099 18.5888 9.22422C17.953 9.63745 16.8882 10.3209 16.8882 10.3209L16.8181 10.3653C16.8872 10.4156 16.9445 10.4604 16.9835 10.4957C17.2378 10.7262 17.7623 11.3698 17.7623 11.3698L19.0656 10.4957L20.6232 9.63745L22.1966 9.04939C22.1966 9.04939 23.1184 8.76331 24.2628 8.62027C25.4071 8.47723 26.1382 8.54875 26.1382 8.54875C26.1382 8.54875 26.917 8.5408 28.0136 9.04939C29.1103 9.55799 29.4441 10.0666 29.4441 10.0666C29.4441 10.0666 30.0798 10.7659 30.3341 11.4652C30.5884 12.1645 30.7155 12.9115 30.7155 12.9115C30.7155 12.9115 30.8109 13.8175 30.5725 14.5803C30.3341 15.3432 29.8414 16.1538 29.8414 16.1538C29.8414 16.1538 29.746 16.4081 29.0626 17.0597C28.3792 17.7114 27.6958 18.0292 27.6958 18.0292C27.6958 18.0292 26.8693 18.5378 25.3435 18.5696C23.8178 18.6014 23.3121 18.4027 23.3121 18.4027C23.3121 18.4027 22.5939 18.2835 21.4814 17.5842C20.3689 16.8849 20.0033 16.5035 20.0033 16.5035C20.0033 16.5035 19.5106 16.1379 18.8908 15.4545C18.2709 14.7711 17.953 14.2943 17.953 14.2943L17.365 13.4519L16.4908 14.1989C16.4908 14.1989 15.4578 15.0889 14.9174 15.4545C14.377 15.82 13.3598 16.3604 12.6605 16.6306C11.9612 16.9008 11.3731 17.1233 10.7215 17.2346C10.0699 17.3458 9.73609 17.3935 8.70301 17.3458C7.66993 17.2981 7.02624 17.2266 6.2872 16.9803C5.54816 16.7339 4.85678 16.4399 4.22104 16.0584C3.5853 15.677 3.31511 15.4704 2.67937 14.9618C2.04363 14.4532 1.40789 13.6108 1.40789 13.6108L0.0251503 11.2268C0.0251503 11.2268 1.53502 12.8559 1.80522 13.1022C2.07542 13.3486 3.18796 14.1989 3.18796 14.1989C3.18796 14.1989 3.63299 14.5406 4.66607 15.1128C5.45845 15.5516 5.54489 15.5791 5.8828 15.6864C5.98545 15.719 6.11131 15.7589 6.2872 15.82C7.04213 16.0823 7.71761 16.1856 8.70301 16.2333C9.52936 16.2732 9.98687 16.1903 10.4505 16.1062L10.4505 16.1062L10.4505 16.1062C10.5397 16.09 10.6292 16.0738 10.7215 16.0584C11.1799 15.982 11.6893 15.773 12.1434 15.5867C12.2562 15.5404 12.3655 15.4956 12.4698 15.4545C12.9943 15.2479 13.6141 14.8505 14.1704 14.4532C14.7267 14.0559 15.4578 13.4519 15.4578 13.4519C15.4578 13.4519 15.577 13.3089 16.1809 12.7685C16.7849 12.2281 16.5783 12.387 16.5783 12.387C16.5783 12.387 16.1412 11.6877 15.8233 11.4652C15.7443 11.4099 15.6153 11.3222 15.4659 11.2217L15.4578 11.2268L13.6141 11.9579C13.6141 11.9579 12.0883 12.3394 11.7864 12.387C11.4844 12.4347 10.0778 12.4427 9.64073 12.387C9.20366 12.3314 8.1229 12.0771 7.71761 11.9579C7.31233 11.8387 6.74811 11.4652 6.74811 11.4652C6.74811 11.4652 7.33617 10.607 7.71761 10.3209C8.09906 10.0348 8.9732 9.46263 9.64073 9.22422C10.3083 8.98582 10.7215 8.89046 11.4844 8.85867C12.2473 8.82689 13.0737 8.96993 13.0737 8.96993L14.9174 9.36727L15.6962 9.63745L15.7603 9.67669L16.1412 9.46263C16.1412 9.46263 17.365 8.62027 17.953 8.36597C18.2893 8.22057 18.823 7.96604 19.2927 7.74204L19.2927 7.74203L19.2928 7.742C19.6445 7.57426 19.9603 7.42365 20.1305 7.34879C20.374 7.24163 20.7907 7.11058 21.1903 6.98493L21.1903 6.98492C21.4426 6.90558 21.688 6.82839 21.8787 6.76073C21.9849 6.72304 22.0845 6.68388 22.1846 6.64451C22.5488 6.50125 22.9198 6.3553 23.6429 6.26803C23.8438 6.24379 23.9934 6.22482 24.109 6.21016L24.1091 6.21016C24.3344 6.18159 24.4311 6.16932 24.5281 6.16607C24.6011 6.16363 24.6742 6.16628 24.8023 6.17092L24.8508 6.17267C25.2958 6.18856 26.1382 6.26803 26.1382 6.26803L23.2615 2.86682C23.2615 2.86682 22.7688 3.66149 22.1966 3.75685C21.6486 3.84819 21.1589 3.67709 20.7974 3.55077L20.7503 3.53434C20.3847 3.4072 19.304 2.70788 19.304 2.70788C19.304 2.70788 19.3994 3.89989 19.3994 4.17008C19.3994 4.44027 19.304 5.06012 18.9861 5.29852C18.6682 5.53693 18.3504 5.71176 17.8577 5.75944C17.365 5.80712 15.6962 5.55282 15.6962 5.55282L16.6339 8.064ZM14.3004 10.5627C14.3004 10.5627 13.5291 9.80699 11.6972 9.90831C9.86538 10.0096 8.43542 10.9823 8.43542 10.9823C8.43542 10.9823 9.53591 11.3827 11.2243 11.2927C12.9127 11.2028 14.3004 10.5627 14.3004 10.5627ZM21.8344 10.6387C22.947 10.146 24.6923 9.97116 24.6923 9.97116C24.6923 9.97116 24.2821 11.2903 24.2423 12.0135C24.2026 12.7366 24.3586 13.7538 24.4857 14.0876C24.6129 14.4213 24.9625 15.2796 25.1533 15.5657C25.344 15.8518 26.2976 16.8689 26.2976 16.8689C26.2976 16.8689 24.8513 17.2345 23.4526 16.7736C22.054 16.3127 21.2593 15.7246 20.56 15.0889C19.8607 14.4531 18.4939 12.4505 18.4939 12.4505C18.4939 12.4505 19.4663 11.8085 20.0543 11.481C20.5666 11.1958 21.2162 10.9104 21.6548 10.7178C21.7196 10.6893 21.7799 10.6628 21.8344 10.6387ZM25.572 9.97116C25.572 9.97116 25.3018 10.6069 25.3018 11.1314C25.3018 11.3002 25.2919 11.4821 25.2817 11.6704C25.2601 12.0671 25.2371 12.4916 25.3018 12.8797C25.3971 13.4518 25.572 14.0081 25.7945 14.4849C26.017 14.9617 26.3348 15.3273 26.5732 15.5657C26.8117 15.8041 27.3361 16.265 27.6699 16.1537C27.9445 16.0622 28.2926 15.6049 28.5756 15.2333C28.6366 15.1532 28.6945 15.077 28.7481 15.0094C29.015 14.6723 29.0708 14.1614 29.1241 13.6742C29.1311 13.6101 29.138 13.5464 29.1454 13.4836C29.209 12.9432 29.0183 12.1645 28.7481 11.7194C28.4779 11.2744 28.1493 10.9248 27.5428 10.6069C26.9362 10.289 25.572 9.97116 25.572 9.97116Z" fill="url(#paint0_linear_142_532)"/>
<ellipse cx="0.683421" cy="0.937718" rx="0.683421" ry="0.937718" transform="matrix(-0.9923 0.123856 0.123856 0.9923 27.6729 11.5149)" fill="url(#paint1_linear_142_532)"/>
<defs>
<linearGradient id="paint0_linear_142_532" x1="30.485" y1="1.64736" x2="0.655859" y2="2.14713" gradientUnits="userSpaceOnUse">
<stop offset="0.03125" stop-color="#B8860B"/>
<stop offset="0.235169" stop-color="#FFD700"/>
<stop offset="0.505033" stop-color="#B8860B"/>
<stop offset="0.749821" stop-color="#DCB900"/>
<stop offset="1" stop-color="#B8860B"/>
</linearGradient>
<linearGradient id="paint1_linear_142_532" x1="0.0111" y1="0.11299" x2="1.33907" y2="0.1225" gradientUnits="userSpaceOnUse">
<stop offset="0.03125" stop-color="#B8860B"/>
<stop offset="0.235169" stop-color="#FFD700"/>
<stop offset="0.505033" stop-color="#B8860B"/>
<stop offset="0.749821" stop-color="#DCB900"/>
<stop offset="1" stop-color="#B8860B"/>
</linearGradient>
</defs>
</svg>
