<svg width="32" height="19" viewBox="0 0 32 19" fill="none" xmlns="http://www.w3.org/2000/svg">
<path fill-rule="evenodd" clip-rule="evenodd" d="M14.6415 8.064L17.6613 4.17008C17.6613 4.17008 14.2919 4.99655 13.3223 4.71046C12.3528 4.42438 13.4336 0.562256 13.4336 0.562256C13.4336 0.562256 10.2867 2.70788 9.53969 2.70788C8.7927 2.70788 8.07749 1.34104 8.07749 1.34104L2.59422 7.76202L5.13719 7.34879C5.13719 7.34879 6.58351 7.23753 7.45764 7.34879C8.33177 7.46004 9.79399 7.95274 9.79399 7.95274C9.79399 7.95274 12.0509 8.81099 12.6866 9.22422C13.3223 9.63745 14.3872 10.3209 14.3872 10.3209L14.4573 10.3653C14.3882 10.4156 14.3309 10.4604 14.2919 10.4957C14.0376 10.7262 13.5131 11.3698 13.5131 11.3698L12.2098 10.4957L10.6522 9.63745L9.07878 9.04939C9.07878 9.04939 8.15696 8.76331 7.01262 8.62027C5.86829 8.47723 5.13719 8.54875 5.13719 8.54875C5.13719 8.54875 4.3584 8.5408 3.26175 9.04939C2.1651 9.55799 1.83133 10.0666 1.83133 10.0666C1.83133 10.0666 1.19559 10.7659 0.941297 11.4652C0.687001 12.1645 0.559852 12.9115 0.559852 12.9115C0.559852 12.9115 0.464491 13.8175 0.702894 14.5803C0.941297 15.3432 1.434 16.1538 1.434 16.1538C1.434 16.1538 1.52937 16.4081 2.21278 17.0597C2.89619 17.7114 3.57962 18.0292 3.57962 18.0292C3.57962 18.0292 4.40608 18.5378 5.93186 18.5696C7.45764 18.6014 7.96329 18.4027 7.96329 18.4027C7.96329 18.4027 8.68144 18.2835 9.79399 17.5842C10.9065 16.8849 11.2721 16.5035 11.2721 16.5035C11.2721 16.5035 11.7648 16.1379 12.3846 15.4545C13.0045 14.7711 13.3223 14.2943 13.3223 14.2943L13.9104 13.4519L14.7846 14.1989C14.7846 14.1989 15.8176 15.0889 16.358 15.4545C16.8984 15.82 17.9156 16.3604 18.6149 16.6306C19.3142 16.9008 19.9023 17.1233 20.5539 17.2346C21.2055 17.3458 21.5393 17.3935 22.5724 17.3458C23.6055 17.2981 24.2492 17.2266 24.9882 16.9803C25.7272 16.7339 26.4186 16.4399 27.0544 16.0584C27.6901 15.677 27.9603 15.4704 28.596 14.9618C29.2318 14.4532 29.8675 13.6108 29.8675 13.6108L31.2502 11.2268C31.2502 11.2268 29.7404 12.8559 29.4702 13.1022C29.2 13.3486 28.0874 14.1989 28.0874 14.1989C28.0874 14.1989 27.6424 14.5406 26.6093 15.1128C25.8169 15.5516 25.7305 15.5791 25.3926 15.6864C25.2899 15.719 25.1641 15.7589 24.9882 15.82C24.2333 16.0823 23.5578 16.1856 22.5724 16.2333C21.746 16.2732 21.2885 16.1903 20.8249 16.1062L20.8249 16.1062L20.8249 16.1062C20.7357 16.09 20.6462 16.0738 20.5539 16.0584C20.0955 15.982 19.5861 15.773 19.132 15.5867C19.0192 15.5404 18.9099 15.4956 18.8056 15.4545C18.2811 15.2479 17.6613 14.8505 17.105 14.4532C16.5487 14.0559 15.8176 13.4519 15.8176 13.4519C15.8176 13.4519 15.6984 13.3089 15.0945 12.7685C14.4905 12.2281 14.6971 12.387 14.6971 12.387C14.6971 12.387 15.1342 11.6877 15.4521 11.4652C15.5311 11.4099 15.6601 11.3222 15.8095 11.2217L15.8176 11.2268L17.6613 11.9579C17.6613 11.9579 19.1871 12.3394 19.489 12.387C19.791 12.4347 21.1976 12.4427 21.6347 12.387C22.0717 12.3314 23.1525 12.0771 23.5578 11.9579C23.9631 11.8387 24.5273 11.4652 24.5273 11.4652C24.5273 11.4652 23.9392 10.607 23.5578 10.3209C23.1763 10.0348 22.3022 9.46263 21.6347 9.22422C20.9671 8.98582 20.5539 8.89046 19.791 8.85867C19.0281 8.82689 18.2017 8.96993 18.2017 8.96993L16.358 9.36727L15.5792 9.63745L15.5151 9.67669L15.1342 9.46263C15.1342 9.46263 13.9104 8.62027 13.3223 8.36597C12.9861 8.22057 12.4524 7.96604 11.9827 7.74204L11.9827 7.74203L11.9826 7.742C11.6309 7.57426 11.3151 7.42365 11.1449 7.34879C10.9014 7.24163 10.4847 7.11058 10.0851 6.98493L10.0851 6.98492C9.8328 6.90558 9.58734 6.82839 9.39665 6.76073C9.29044 6.72304 9.19088 6.68388 9.09081 6.64451C8.72662 6.50125 8.35558 6.3553 7.63247 6.26803C7.43159 6.24379 7.28204 6.22482 7.16637 6.21016L7.16633 6.21016C6.94099 6.18159 6.84427 6.16932 6.74725 6.16607C6.67431 6.16363 6.60119 6.16628 6.47311 6.17092L6.42456 6.17267C5.97954 6.18856 5.13719 6.26803 5.13719 6.26803L8.01391 2.86682C8.01391 2.86682 8.50661 3.66149 9.07878 3.75685C9.62678 3.84819 10.1165 3.67709 10.478 3.55077L10.5251 3.53434C10.8906 3.4072 11.9714 2.70788 11.9714 2.70788C11.9714 2.70788 11.876 3.89989 11.876 4.17008C11.876 4.44027 11.9714 5.06012 12.2893 5.29852C12.6071 5.53693 12.925 5.71176 13.4177 5.75944C13.9104 5.80712 15.5792 5.55282 15.5792 5.55282L14.6415 8.064ZM16.975 10.5627C16.975 10.5627 17.7463 9.80699 19.5782 9.90831C21.41 10.0096 22.84 10.9823 22.84 10.9823C22.84 10.9823 21.7395 11.3827 20.0511 11.2927C18.3627 11.2028 16.975 10.5627 16.975 10.5627ZM9.44097 10.6387C8.32842 10.146 6.58305 9.97116 6.58305 9.97116C6.58305 9.97116 6.99333 11.2903 7.03307 12.0135C7.0728 12.7366 6.91681 13.7538 6.78967 14.0876C6.66252 14.4213 6.31286 15.2796 6.12214 15.5657C5.93142 15.8518 4.9778 16.8689 4.9778 16.8689C4.9778 16.8689 6.42411 17.2345 7.82274 16.7736C9.22137 16.3127 10.0161 15.7246 10.7154 15.0889C11.4147 14.4531 12.7815 12.4505 12.7815 12.4505C12.7815 12.4505 11.8091 11.8085 11.221 11.481C10.7088 11.1958 10.0592 10.9104 9.62064 10.7178C9.55575 10.6893 9.49548 10.6628 9.44097 10.6387ZM5.70343 9.97116C5.70343 9.97116 5.97362 10.6069 5.97362 11.1314C5.97362 11.3002 5.9835 11.4821 5.99372 11.6704C6.01525 12.0671 6.03829 12.4916 5.97362 12.8797C5.87826 13.4518 5.70343 14.0081 5.48092 14.4849C5.25841 14.9617 4.94054 15.3273 4.70214 15.5657C4.46374 15.8041 3.93925 16.265 3.60549 16.1537C3.3309 16.0622 2.98276 15.6049 2.69979 15.2333C2.63881 15.1532 2.58085 15.077 2.52731 15.0094C2.26043 14.6723 2.20458 14.1614 2.15132 13.6742C2.14432 13.6101 2.13736 13.5464 2.12997 13.4836C2.06639 12.9432 2.25712 12.1645 2.52731 11.7194C2.7975 11.2744 3.1261 10.9248 3.73264 10.6069C4.33918 10.289 5.70343 9.97116 5.70343 9.97116Z" fill="url(#paint0_linear_142_542)"/>
<ellipse cx="4.16456" cy="12.53" rx="0.683421" ry="0.937718" transform="rotate(7.11471 4.16456 12.53)" fill="url(#paint1_linear_142_542)"/>
<defs>
<linearGradient id="paint0_linear_142_542" x1="0.790401" y1="1.64736" x2="30.6195" y2="2.14713" gradientUnits="userSpaceOnUse">
<stop offset="0.03125" stop-color="#B8860B"/>
<stop offset="0.235169" stop-color="#FFD700"/>
<stop offset="0.505033" stop-color="#B8860B"/>
<stop offset="0.749821" stop-color="#DCB900"/>
<stop offset="1" stop-color="#B8860B"/>
</linearGradient>
<linearGradient id="paint1_linear_142_542" x1="3.49223" y1="11.7053" x2="4.82021" y2="11.7148" gradientUnits="userSpaceOnUse">
<stop offset="0.03125" stop-color="#B8860B"/>
<stop offset="0.235169" stop-color="#FFD700"/>
<stop offset="0.505033" stop-color="#B8860B"/>
<stop offset="0.749821" stop-color="#DCB900"/>
<stop offset="1" stop-color="#B8860B"/>
</linearGradient>
</defs>
</svg>
