<svg width="23" height="22" viewBox="0 0 23 22" fill="none" xmlns="http://www.w3.org/2000/svg">
<rect y="0.5" width="23" height="21" rx="10.5" fill="white"/>
<path d="M13.5391 7.03149L14.8648 7.5002L15.3064 8.82492C15.3774 9.03787 15.5778 9.18193 15.8022 9.18193C16.0267 9.18193 16.2261 9.03787 16.2981 8.82492L16.7376 7.50647L18.056 7.06699C18.269 6.996 18.413 6.79661 18.413 6.57218C18.413 6.34774 18.269 6.14835 18.056 6.07737L16.7376 5.63788L16.2981 4.31943C16.1551 3.89352 15.4504 3.89352 15.3074 4.31943L14.87 5.63162L13.5589 6.04187C13.3449 6.10868 13.1966 6.30494 13.1925 6.53042C13.1883 6.7559 13.3271 6.95738 13.5391 7.03149Z" fill="black"/>
<path d="M5.26287 12.8314L8.1411 13.849L9.09974 16.7249C9.25385 17.1872 9.68899 17.5 10.1762 17.5C10.6635 17.5 11.0964 17.1872 11.2527 16.7249L12.2069 13.8626L15.0692 12.9084C15.5316 12.7543 15.8443 12.3215 15.8443 11.8342C15.8443 11.3469 15.5316 10.9141 15.0692 10.76L12.2069 9.80585L11.2527 6.94349C10.9423 6.01884 9.4125 6.01884 9.10201 6.94349L8.15243 9.79225L5.30593 10.6829C4.84133 10.828 4.51952 11.254 4.51045 11.7436C4.50139 12.2331 4.80281 12.6705 5.26287 12.8314Z" fill="black"/>
</svg>
